<svg id="Consul" xmlns="http://www.w3.org/2000/svg" viewBox="0 0 450 450"><title>consul</title><path d="M449,1V449H1V1H449m1-1H0V450H450V0Z" fill="#c1272d"/><polyline points="56.17 395.93 53.37 395.93 53.37 53.3 396 53.3 396 395.93 384.84 395.93" fill="none" stroke="#000" stroke-miterlimit="10"/><line x1="348.85" y1="395.93" x2="116.08" y2="395.93" fill="none" stroke="#000" stroke-miterlimit="10"/><path d="M364.81,382.09l-10.93,6.28h0v15.09l4.12,2.38V390.73l6.81-3.93Z" fill="none" stroke="#000" stroke-miterlimit="10" stroke-width="0.75"/><path d="M369.19,382.09v12h-4.38v-4.5l-4.1,2.36v15.41l4.1,2.36v-12h4.38v4.46l4.09-2.36V384.44Z" fill="none" stroke="#000" stroke-miterlimit="10" stroke-width="0.75"/><path d="M369.19,409.77l10.93-6.29V388.37L376,386V401.1L369.19,405Z" fill="none" stroke="#000" stroke-miterlimit="10" stroke-width="0.75"/><line x1="189.04" y1="404.98" x2="189.04" y2="415.3" fill="none" stroke="#000" stroke-linecap="round" stroke-linejoin="round" stroke-width="0.75"/><line x1="195.12" y1="404.98" x2="195.12" y2="415.3" fill="none" stroke="#000" stroke-linecap="round" stroke-linejoin="round" stroke-width="0.75"/><line x1="189.04" y1="410.1" x2="195.12" y2="410.1" fill="none" stroke="#000" stroke-linecap="round" stroke-linejoin="round" stroke-width="0.75"/><path d="M202.42,414.21a3.28,3.28,0,0,1-2.36,1.18,3.39,3.39,0,0,1-2.31-.36A2.4,2.4,0,0,1,197,413a1.79,1.79,0,0,1,1.5-1.72,12.33,12.33,0,0,1,1.82-.09h2.08" fill="none" stroke="#000" stroke-linecap="round" stroke-linejoin="round" stroke-width="0.75"/><path d="M197.25,408.11c1.63-.5,4.63-.82,5,1.4a9.9,9.9,0,0,1,.09,1.63v4.16" fill="none" stroke="#000" stroke-linecap="round" stroke-linejoin="round" stroke-width="0.75"/><path d="M204.1,415a8.79,8.79,0,0,0,2.68.41,3.48,3.48,0,0,0,2.13-.5,1.85,1.85,0,0,0,.64-1.4,1.63,1.63,0,0,0-.36-1.41,2,2,0,0,0-1.23-.49,17.53,17.53,0,0,1-3-.37c-.95-.36-1-1.67-.59-2.48a2.15,2.15,0,0,1,1.68-1,8.46,8.46,0,0,1,3.36.23" fill="none" stroke="#000" stroke-linecap="round" stroke-linejoin="round" stroke-width="0.75"/><line x1="211.18" y1="415.3" x2="211.18" y2="404.85" fill="none" stroke="#000" stroke-linecap="round" stroke-linejoin="round" stroke-width="0.75"/><path d="M211.18,409.15a8.34,8.34,0,0,1,3-1.18,3.65,3.65,0,0,1,2.77.5,2.46,2.46,0,0,1,.68,2v4.8" fill="none" stroke="#000" stroke-linecap="round" stroke-linejoin="round" stroke-width="0.75"/><line x1="219.53" y1="407.88" x2="219.53" y2="415.3" fill="none" stroke="#000" stroke-linecap="round" stroke-linejoin="round" stroke-width="0.75"/><line x1="219.53" y1="404.98" x2="219.53" y2="406.48" fill="none" stroke="#000" stroke-linecap="round" stroke-linejoin="round" stroke-width="0.75"/><path d="M227.75,415.35a11,11,0,0,1-3.18.22,4.29,4.29,0,0,1-2.13-.68,3.37,3.37,0,0,1-.91-2.76v-3.48a4.36,4.36,0,0,1,.54-2.81,3.08,3.08,0,0,1,2.14-1,10.21,10.21,0,0,1,3.49.13" fill="none" stroke="#000" stroke-linecap="round" stroke-linejoin="round" stroke-width="0.75"/><path d="M232,415.75a2.9,2.9,0,0,1-2.54-1.08,3.56,3.56,0,0,1-.5-1.9v-2a3.77,3.77,0,0,1,.37-1.86,2.71,2.71,0,0,1,2.27-1.27,3.4,3.4,0,0,1,2.76.82c1,1,.68,2.67.68,3.93a4.2,4.2,0,0,1-.36,2.09A2.92,2.92,0,0,1,232,415.75Z" fill="none" stroke="#000" stroke-linecap="round" stroke-linejoin="round" stroke-width="0.75"/><path d="M236.51,408.83a9.77,9.77,0,0,1,3.36-1.18,2.5,2.5,0,0,1,1.9.32,2,2,0,0,1,.5,1.4c0,1.45,0,2.9,0,4.39v1.86" fill="none" stroke="#000" stroke-linecap="round" stroke-linejoin="round" stroke-width="0.75"/><path d="M236.51,415.62v-8.15" fill="none" stroke="#000" stroke-linecap="round" stroke-linejoin="round" stroke-width="0.75"/><path d="M245,415.44v-4.62c0-1.58,0-3.17,0-4.7a1.68,1.68,0,0,1,1-1.68,2.08,2.08,0,0,1,1.73,0" fill="none" stroke="#000" stroke-linecap="round" stroke-linejoin="round" stroke-width="0.75"/><path d="M243.18,407.74h3.63" fill="none" stroke="#000" stroke-linecap="round" stroke-linejoin="round" stroke-width="0.75"/><path d="M253,404.54l1.64-1.37v8.33" fill="none" stroke="#000" stroke-linecap="round" stroke-linejoin="round" stroke-width="0.75"/><path d="M258.7,402.81a1.9,1.9,0,0,1,2.09,2.08c0,1.4.37,2.37-2.34,2.37-1.15,0-1.84-.54-1.84-2.37C256.61,403.74,257,402.81,258.7,402.81Z" fill="none" stroke="#000" stroke-linecap="round" stroke-linejoin="round" stroke-width="0.75"/><path d="M260.81,405.7c0,4.61.64,6-3.22,6" fill="none" stroke="#000" stroke-linecap="round" stroke-linejoin="round" stroke-width="0.75"/><line x1="188.52" y1="404.98" x2="188.52" y2="415.3" fill="none" stroke="#000" stroke-linecap="round" stroke-linejoin="round" stroke-width="0.75"/><line x1="194.61" y1="404.98" x2="194.61" y2="415.3" fill="none" stroke="#000" stroke-linecap="round" stroke-linejoin="round" stroke-width="0.75"/><line x1="188.52" y1="410.1" x2="194.61" y2="410.1" fill="none" stroke="#000" stroke-linecap="round" stroke-linejoin="round" stroke-width="0.75"/><path d="M201.91,414.21a3.28,3.28,0,0,1-2.36,1.18,3.39,3.39,0,0,1-2.31-.36,2.4,2.4,0,0,1-.73-2.08,1.79,1.79,0,0,1,1.5-1.72,12.2,12.2,0,0,1,1.81-.09h2.09" fill="none" stroke="#000" stroke-linecap="round" stroke-linejoin="round" stroke-width="0.75"/><path d="M196.74,408.11c1.63-.5,4.63-.82,5,1.4a9.9,9.9,0,0,1,.09,1.63v4.16" fill="none" stroke="#000" stroke-linecap="round" stroke-linejoin="round" stroke-width="0.75"/><path d="M203.59,415a8.79,8.79,0,0,0,2.68.41,3.5,3.5,0,0,0,2.13-.5,1.85,1.85,0,0,0,.64-1.4,1.59,1.59,0,0,0-.37-1.41,2,2,0,0,0-1.22-.5,17.51,17.51,0,0,1-3-.36c-1-.36-1-1.67-.59-2.49a2.17,2.17,0,0,1,1.68-.95,8.46,8.46,0,0,1,3.36.23" fill="none" stroke="#000" stroke-linecap="round" stroke-linejoin="round" stroke-width="0.75"/><line x1="210.67" y1="415.3" x2="210.67" y2="404.85" fill="none" stroke="#000" stroke-linecap="round" stroke-linejoin="round" stroke-width="0.75"/><path d="M210.67,409.15a8.34,8.34,0,0,1,3-1.18,3.66,3.66,0,0,1,2.77.5,2.44,2.44,0,0,1,.68,2v4.79" fill="none" stroke="#000" stroke-linecap="round" stroke-linejoin="round" stroke-width="0.75"/><line x1="219.02" y1="407.88" x2="219.02" y2="415.3" fill="none" stroke="#000" stroke-linecap="round" stroke-linejoin="round" stroke-width="0.75"/><line x1="219.02" y1="404.98" x2="219.02" y2="406.48" fill="none" stroke="#000" stroke-linecap="round" stroke-linejoin="round" stroke-width="0.75"/><line x1="251.46" y1="402.45" x2="251.46" y2="403.94" fill="none" stroke="#000" stroke-linecap="round" stroke-linejoin="round" stroke-width="0.75"/><path d="M84.63,393.18a5.09,5.09,0,1,1,5.08-5.1,5.08,5.08,0,0,1-5.08,5.1h0" fill="none" stroke="#000" stroke-miterlimit="10"/><path d="M94.54,390.44a2.35,2.35,0,1,1,2.34-2.35h0a2.33,2.33,0,0,1-2.33,2.34h0" fill="none" stroke="#000" stroke-miterlimit="10"/><path d="M101.46,386.61a2.36,2.36,0,1,1,1.73-2.84v0a2.53,2.53,0,0,1,0,.91,2.26,2.26,0,0,1-1.76,1.91" fill="none" stroke="#000" stroke-miterlimit="10"/><path d="M101.46,394.27a2.35,2.35,0,1,1,1.73-2.84v0a2.58,2.58,0,0,1,0,.92,2.24,2.24,0,0,1-1.76,1.9" fill="none" stroke="#000" stroke-miterlimit="10"/><path d="M107.9,386.51a2.35,2.35,0,1,1,1.91-2.71h0a2.41,2.41,0,0,1,0,.6,2.33,2.33,0,0,1-2,2.1" fill="none" stroke="#000" stroke-miterlimit="10"/><path d="M107.9,394.39a2.35,2.35,0,1,1,1.91-2.71h0a2.49,2.49,0,0,1,0,.61,2.33,2.33,0,0,1-2,2.09" fill="none" stroke="#000" stroke-miterlimit="10"/><path d="M106.26,400.52h0a2.38,2.38,0,1,1,.29-1,2.23,2.23,0,0,1-.29,1" fill="none" stroke="#000" stroke-miterlimit="10"/><path d="M105.42,379a2.35,2.35,0,1,1,.89-3.21,2.23,2.23,0,0,1,.29,1.36,2.39,2.39,0,0,1-1.18,1.85" fill="none" stroke="#000" stroke-miterlimit="10"/><path d="M84.72,411.73a23.58,23.58,0,1,1,14.33-42.32l-2.88,3.76a18.85,18.85,0,1,0,0,30L99,406.89A23.31,23.31,0,0,1,84.72,411.73Z" fill="none" stroke="#000" stroke-miterlimit="10"/><line x1="79.75" y1="388.63" x2="86.87" y2="392.67" fill="none" stroke="#000" stroke-miterlimit="10"/><line x1="80.22" y1="385.55" x2="89.08" y2="390.57" fill="none" stroke="#000" stroke-miterlimit="10"/><line x1="82.49" y1="383.48" x2="89.71" y2="387.58" fill="none" stroke="#000" stroke-miterlimit="10"/><line x1="67.56" y1="425.24" x2="69.56" y2="431.24" fill="none" stroke="#000" stroke-linecap="round" stroke-miterlimit="10"/><line x1="69.56" y1="431.24" x2="71.56" y2="425.24" fill="none" stroke="#000" stroke-linecap="round" stroke-miterlimit="10"/><line x1="77.56" y1="421.25" x2="77.56" y2="431.24" fill="none" stroke="#000" stroke-linecap="round" stroke-miterlimit="10"/><line x1="75.56" y1="423.24" x2="77.56" y2="421.25" fill="none" stroke="#000" stroke-linecap="round" stroke-miterlimit="10"/><line x1="85.55" y1="430.24" x2="85.55" y2="431.24" fill="none" stroke="#000" stroke-linecap="round" stroke-miterlimit="10"/><line x1="91.53" y1="426.3" x2="95.59" y2="426.3" fill="none" stroke="#000" stroke-linecap="round" stroke-miterlimit="10"/><line x1="95.59" y1="426.3" x2="95.59" y2="431.37" fill="none" stroke="#000" stroke-linecap="round" stroke-miterlimit="10"/><line x1="95.59" y1="431.37" x2="91.53" y2="431.37" fill="none" stroke="#000" stroke-linecap="round" stroke-miterlimit="10"/><line x1="91.53" y1="431.37" x2="91.53" y2="421.25" fill="none" stroke="#000" stroke-linecap="round" stroke-miterlimit="10"/><line x1="91.53" y1="421.25" x2="93.56" y2="421.25" fill="none" stroke="#000" stroke-linecap="round" stroke-miterlimit="10"/></svg>