<svg id="Layer_1" data-name="Layer 1" xmlns="http://www.w3.org/2000/svg" viewBox="0 0 450 450">
  <title>nomad</title>
  <path d="M449,1V449H1V1H449m1-1H0V450H450V0Z" fill="#c1272d"/>
  <polyline points="57.13 395.93 53.37 395.93 53.37 53.3 396 53.3 396 395.93 384.84 395.93" fill="none" stroke="#000" stroke-miterlimit="10"/>
  <line x1="348.85" y1="395.93" x2="113.82" y2="395.93" fill="none" stroke="#000" stroke-miterlimit="10"/>
  <g>
    <path d="M364.81,382.09l-10.93,6.28h0v15.09l4.12,2.38V390.73l6.81-3.93Z" fill="none" stroke="#000" stroke-miterlimit="10" stroke-width="0.75"/>
    <path d="M369.19,382.09v12h-4.38v-4.5l-4.1,2.36v15.41l4.1,2.36v-12h4.38v4.46l4.09-2.36V384.44Z" fill="none" stroke="#000" stroke-miterlimit="10" stroke-width="0.75"/>
    <path d="M369.19,409.77l10.93-6.29V388.37L376,386V401.1L369.19,405Z" fill="none" stroke="#000" stroke-miterlimit="10" stroke-width="0.75"/>
  </g>
  <g>
    <g>
      <g>
        <line x1="189.04" y1="404.98" x2="189.04" y2="415.3" fill="none" stroke="#000" stroke-linecap="round" stroke-linejoin="round" stroke-width="0.75"/>
        <line x1="195.12" y1="404.98" x2="195.12" y2="415.3" fill="none" stroke="#000" stroke-linecap="round" stroke-linejoin="round" stroke-width="0.75"/>
        <line x1="189.04" y1="410.1" x2="195.12" y2="410.1" fill="none" stroke="#000" stroke-linecap="round" stroke-linejoin="round" stroke-width="0.75"/>
        <path d="M202.42,414.21a3.28,3.28,0,0,1-2.36,1.18,3.39,3.39,0,0,1-2.31-.36A2.4,2.4,0,0,1,197,413a1.79,1.79,0,0,1,1.5-1.72,12.33,12.33,0,0,1,1.82-.09h2.08" fill="none" stroke="#000" stroke-linecap="round" stroke-linejoin="round" stroke-width="0.75"/>
        <path d="M197.25,408.11c1.63-.5,4.63-.82,5,1.4a9.9,9.9,0,0,1,.09,1.63v4.16" fill="none" stroke="#000" stroke-linecap="round" stroke-linejoin="round" stroke-width="0.75"/>
        <path d="M204.1,415a8.79,8.79,0,0,0,2.68.41,3.48,3.48,0,0,0,2.13-.5,1.85,1.85,0,0,0,.64-1.4,1.63,1.63,0,0,0-.36-1.41,2,2,0,0,0-1.23-.49,17.53,17.53,0,0,1-3-.37c-.95-.36-1-1.67-.59-2.48a2.15,2.15,0,0,1,1.68-1,8.46,8.46,0,0,1,3.36.23" fill="none" stroke="#000" stroke-linecap="round" stroke-linejoin="round" stroke-width="0.75"/>
        <line x1="211.18" y1="415.3" x2="211.18" y2="404.85" fill="none" stroke="#000" stroke-linecap="round" stroke-linejoin="round" stroke-width="0.75"/>
        <path d="M211.18,409.15a8.34,8.34,0,0,1,3-1.18,3.65,3.65,0,0,1,2.77.5,2.46,2.46,0,0,1,.68,2v4.8" fill="none" stroke="#000" stroke-linecap="round" stroke-linejoin="round" stroke-width="0.75"/>
        <line x1="219.53" y1="407.88" x2="219.53" y2="415.3" fill="none" stroke="#000" stroke-linecap="round" stroke-linejoin="round" stroke-width="0.75"/>
        <line x1="219.53" y1="404.98" x2="219.53" y2="406.48" fill="none" stroke="#000" stroke-linecap="round" stroke-linejoin="round" stroke-width="0.75"/>
        <path d="M227.75,415.35a11,11,0,0,1-3.18.22,4.29,4.29,0,0,1-2.13-.68,3.37,3.37,0,0,1-.91-2.76v-3.48a4.36,4.36,0,0,1,.54-2.81,3.08,3.08,0,0,1,2.14-1,10.21,10.21,0,0,1,3.49.13" fill="none" stroke="#000" stroke-linecap="round" stroke-linejoin="round" stroke-width="0.75"/>
        <path d="M232,415.75a2.9,2.9,0,0,1-2.54-1.08,3.56,3.56,0,0,1-.5-1.9v-2a3.77,3.77,0,0,1,.37-1.86,2.71,2.71,0,0,1,2.27-1.27,3.4,3.4,0,0,1,2.76.82c1,1,.68,2.67.68,3.93a4.2,4.2,0,0,1-.36,2.09A2.92,2.92,0,0,1,232,415.75Z" fill="none" stroke="#000" stroke-linecap="round" stroke-linejoin="round" stroke-width="0.75"/>
        <path d="M236.51,408.83a9.77,9.77,0,0,1,3.36-1.18,2.5,2.5,0,0,1,1.9.32,2,2,0,0,1,.5,1.4c0,1.45,0,2.9,0,4.39v1.86" fill="none" stroke="#000" stroke-linecap="round" stroke-linejoin="round" stroke-width="0.75"/>
        <path d="M236.51,415.62v-8.15" fill="none" stroke="#000" stroke-linecap="round" stroke-linejoin="round" stroke-width="0.75"/>
        <path d="M245,415.44v-4.62c0-1.58,0-3.17,0-4.7a1.68,1.68,0,0,1,1-1.68,2.08,2.08,0,0,1,1.73,0" fill="none" stroke="#000" stroke-linecap="round" stroke-linejoin="round" stroke-width="0.75"/>
        <path d="M243.18,407.74h3.63" fill="none" stroke="#000" stroke-linecap="round" stroke-linejoin="round" stroke-width="0.75"/>
        <path d="M253,404.54l1.64-1.37v8.33" fill="none" stroke="#000" stroke-linecap="round" stroke-linejoin="round" stroke-width="0.75"/>
        <path d="M258.7,402.81a1.9,1.9,0,0,1,2.09,2.08c0,1.4.37,2.37-2.34,2.37-1.15,0-1.84-.54-1.84-2.37C256.61,403.74,257,402.81,258.7,402.81Z" fill="none" stroke="#000" stroke-linecap="round" stroke-linejoin="round" stroke-width="0.75"/>
      </g>
      <path d="M260.81,405.7c0,4.61.64,6-3.22,6" fill="none" stroke="#000" stroke-linecap="round" stroke-linejoin="round" stroke-width="0.75"/>
    </g>
    <line x1="188.52" y1="404.98" x2="188.52" y2="415.3" fill="none" stroke="#000" stroke-linecap="round" stroke-linejoin="round" stroke-width="0.75"/>
    <line x1="194.61" y1="404.98" x2="194.61" y2="415.3" fill="none" stroke="#000" stroke-linecap="round" stroke-linejoin="round" stroke-width="0.75"/>
    <line x1="188.52" y1="410.1" x2="194.61" y2="410.1" fill="none" stroke="#000" stroke-linecap="round" stroke-linejoin="round" stroke-width="0.75"/>
    <path d="M201.91,414.21a3.28,3.28,0,0,1-2.36,1.18,3.39,3.39,0,0,1-2.31-.36,2.4,2.4,0,0,1-.73-2.08,1.79,1.79,0,0,1,1.5-1.72,12.2,12.2,0,0,1,1.81-.09h2.09" fill="none" stroke="#000" stroke-linecap="round" stroke-linejoin="round" stroke-width="0.75"/>
    <path d="M196.74,408.11c1.63-.5,4.63-.82,5,1.4a9.9,9.9,0,0,1,.09,1.63v4.16" fill="none" stroke="#000" stroke-linecap="round" stroke-linejoin="round" stroke-width="0.75"/>
    <path d="M203.59,415a8.79,8.79,0,0,0,2.68.41,3.5,3.5,0,0,0,2.13-.5,1.85,1.85,0,0,0,.64-1.4,1.59,1.59,0,0,0-.37-1.41,2,2,0,0,0-1.22-.5,17.51,17.51,0,0,1-3-.36c-1-.36-1-1.67-.59-2.49a2.17,2.17,0,0,1,1.68-.95,8.46,8.46,0,0,1,3.36.23" fill="none" stroke="#000" stroke-linecap="round" stroke-linejoin="round" stroke-width="0.75"/>
    <line x1="210.67" y1="415.3" x2="210.67" y2="404.85" fill="none" stroke="#000" stroke-linecap="round" stroke-linejoin="round" stroke-width="0.75"/>
    <path d="M210.67,409.15a8.34,8.34,0,0,1,3-1.18,3.66,3.66,0,0,1,2.77.5,2.44,2.44,0,0,1,.68,2v4.79" fill="none" stroke="#000" stroke-linecap="round" stroke-linejoin="round" stroke-width="0.75"/>
    <line x1="219.02" y1="407.88" x2="219.02" y2="415.3" fill="none" stroke="#000" stroke-linecap="round" stroke-linejoin="round" stroke-width="0.75"/>
    <line x1="219.02" y1="404.98" x2="219.02" y2="406.48" fill="none" stroke="#000" stroke-linecap="round" stroke-linejoin="round" stroke-width="0.75"/>
    <line x1="251.46" y1="402.45" x2="251.46" y2="403.94" fill="none" stroke="#000" stroke-linecap="round" stroke-linejoin="round" stroke-width="0.75"/>
  </g>
  <g>
    <line x1="63.06" y1="374.85" x2="78.05" y2="383.66" fill="none" stroke="#000" stroke-miterlimit="10"/>
    <line x1="95.53" y1="381.7" x2="107.9" y2="374.81" fill="none" stroke="#000" stroke-miterlimit="10"/>
    <line x1="85.48" y1="391.06" x2="85.48" y2="413.24" fill="none" stroke="#000" stroke-miterlimit="10"/>
    <polygon points="89.61 393.61 82.49 389.35 82.49 397.88 75.76 402.15 75.76 385.07 81.09 381.81 88.46 385.93 88.46 377.38 95.53 373.13 95.53 390.2 89.61 393.61" fill="none" stroke="#000" stroke-miterlimit="10"/>
    <line x1="85.48" y1="410.93" x2="87.51" y2="412.09" fill="none" stroke="#000" stroke-miterlimit="10"/>
    <line x1="85.48" y1="407.29" x2="90.7" y2="410.26" fill="none" stroke="#000" stroke-miterlimit="10"/>
    <line x1="85.48" y1="403.66" x2="93.89" y2="408.44" fill="none" stroke="#000" stroke-miterlimit="10"/>
    <line x1="85.48" y1="400.02" x2="97.09" y2="406.61" fill="none" stroke="#000" stroke-miterlimit="10"/>
    <line x1="85.66" y1="396.24" x2="100.47" y2="404.64" fill="none" stroke="#000" stroke-miterlimit="10"/>
    <line x1="85.48" y1="392.75" x2="103.47" y2="402.96" fill="none" stroke="#000" stroke-miterlimit="10"/>
    <line x1="91.48" y1="392.53" x2="106.67" y2="401.14" fill="none" stroke="#000" stroke-miterlimit="10"/>
    <line x1="94.73" y1="390.73" x2="107.93" y2="398.22" fill="none" stroke="#000" stroke-miterlimit="10"/>
    <line x1="95.53" y1="387.54" x2="107.9" y2="394.56" fill="none" stroke="#000" stroke-miterlimit="10"/>
    <line x1="95.53" y1="383.92" x2="107.9" y2="390.93" fill="none" stroke="#000" stroke-miterlimit="10"/>
    <line x1="96.83" y1="381.01" x2="107.9" y2="387.3" fill="none" stroke="#000" stroke-miterlimit="10"/>
    <line x1="100.05" y1="379.21" x2="107.9" y2="383.66" fill="none" stroke="#000" stroke-miterlimit="10"/>
    <line x1="103.31" y1="377.42" x2="107.9" y2="380.03" fill="none" stroke="#000" stroke-miterlimit="10"/>
    <line x1="106.6" y1="375.66" x2="107.9" y2="376.39" fill="none" stroke="#000" stroke-miterlimit="10"/>
    <polygon points="85.48 413.24 85.48 413.24 107.89 400.44 107.89 374.81 107.89 374.81 85.29 362 63.06 374.85 63.06 374.85 63.06 400.44 85.48 413.24" fill="none" stroke="#000" stroke-miterlimit="10"/>
  </g>
  <g>
    <g>
      <line x1="67.56" y1="425.28" x2="69.56" y2="431.28" fill="none" stroke="#000" stroke-miterlimit="10" stroke-width="0.75"/>
      <line x1="69.56" y1="431.28" x2="71.56" y2="425.28" fill="none" stroke="#000" stroke-miterlimit="10" stroke-width="0.75"/>
    </g>
    <g>
      <line x1="75.56" y1="421.28" x2="79.56" y2="421.28" fill="none" stroke="#000" stroke-miterlimit="10" stroke-width="0.75"/>
      <line x1="79.56" y1="421.28" x2="79.56" y2="431.28" fill="none" stroke="#000" stroke-miterlimit="10" stroke-width="0.75"/>
      <line x1="79.56" y1="431.28" x2="75.56" y2="431.28" fill="none" stroke="#000" stroke-miterlimit="10" stroke-width="0.75"/>
      <line x1="75.56" y1="431.28" x2="75.56" y2="421.28" fill="none" stroke="#000" stroke-miterlimit="10" stroke-width="0.75"/>
      <line x1="75.56" y1="421.28" x2="79.56" y2="431.28" fill="none" stroke="#000" stroke-miterlimit="10" stroke-width="0.75"/>
    </g>
    <g>
      <line x1="99.43" y1="421.28" x2="103.42" y2="421.28" fill="none" stroke="#000" stroke-miterlimit="10" stroke-width="0.75"/>
      <line x1="103.42" y1="421.28" x2="103.42" y2="431.28" fill="none" stroke="#000" stroke-miterlimit="10" stroke-width="0.75"/>
      <line x1="103.42" y1="431.28" x2="99.43" y2="431.28" fill="none" stroke="#000" stroke-miterlimit="10" stroke-width="0.75"/>
      <line x1="99.43" y1="431.28" x2="99.43" y2="421.28" fill="none" stroke="#000" stroke-miterlimit="10" stroke-width="0.75"/>
      <line x1="99.43" y1="421.28" x2="103.42" y2="431.28" fill="none" stroke="#000" stroke-miterlimit="10" stroke-width="0.75"/>
    </g>
    <line x1="85.55" y1="430.28" x2="85.55" y2="431.28" fill="none" stroke="#000" stroke-miterlimit="10" stroke-width="0.75"/>
    <g>
      <line x1="93.55" y1="421.28" x2="93.55" y2="431.28" fill="none" stroke="#000" stroke-miterlimit="10" stroke-width="0.75"/>
      <line x1="91.55" y1="423.28" x2="93.55" y2="421.28" fill="none" stroke="#000" stroke-miterlimit="10" stroke-width="0.75"/>
    </g>
  </g>
</svg>
