<svg xmlns="http://www.w3.org/2000/svg" viewBox="0 0 450 450"><title>vagrant</title><g id="Vagrant"><path d="M449,1V449H1V1H449m1-1H0V450H450V0Z" fill="#c1272d"/><polyline points="64.9 395.93 53.37 395.93 53.37 53.3 396 53.3 396 395.93 384.84 395.93" fill="none" stroke="#000" stroke-miterlimit="10"/><line x1="348.85" y1="395.93" x2="106.63" y2="395.93" fill="none" stroke="#000" stroke-miterlimit="10"/><path d="M364.81,382.09l-10.93,6.28h0v15.09l4.12,2.38V390.73l6.81-3.93Z" fill="none" stroke="#000" stroke-miterlimit="10" stroke-width="0.75"/><path d="M369.19,382.09v12h-4.38v-4.5l-4.1,2.36v15.41l4.1,2.36v-12h4.38v4.46l4.09-2.36V384.44Z" fill="none" stroke="#000" stroke-miterlimit="10" stroke-width="0.75"/><path d="M369.19,409.77l10.93-6.29V388.37L376,386V401.1L369.19,405Z" fill="none" stroke="#000" stroke-miterlimit="10" stroke-width="0.75"/><line x1="189.04" y1="404.98" x2="189.04" y2="415.3" fill="none" stroke="#000" stroke-linecap="round" stroke-linejoin="round" stroke-width="0.75"/><line x1="195.12" y1="404.98" x2="195.12" y2="415.3" fill="none" stroke="#000" stroke-linecap="round" stroke-linejoin="round" stroke-width="0.75"/><line x1="189.04" y1="410.1" x2="195.12" y2="410.1" fill="none" stroke="#000" stroke-linecap="round" stroke-linejoin="round" stroke-width="0.75"/><path d="M202.42,414.21a3.28,3.28,0,0,1-2.36,1.18,3.39,3.39,0,0,1-2.31-.36A2.4,2.4,0,0,1,197,413a1.79,1.79,0,0,1,1.5-1.72,12.33,12.33,0,0,1,1.82-.09h2.08" fill="none" stroke="#000" stroke-linecap="round" stroke-linejoin="round" stroke-width="0.75"/><path d="M197.25,408.11c1.63-.5,4.63-.82,5,1.4a9.9,9.9,0,0,1,.09,1.63v4.16" fill="none" stroke="#000" stroke-linecap="round" stroke-linejoin="round" stroke-width="0.75"/><path d="M204.1,415a8.79,8.79,0,0,0,2.68.41,3.48,3.48,0,0,0,2.13-.5,1.85,1.85,0,0,0,.64-1.4,1.63,1.63,0,0,0-.36-1.41,2,2,0,0,0-1.23-.49,17.53,17.53,0,0,1-3-.37c-.95-.36-1-1.67-.59-2.48a2.15,2.15,0,0,1,1.68-1,8.46,8.46,0,0,1,3.36.23" fill="none" stroke="#000" stroke-linecap="round" stroke-linejoin="round" stroke-width="0.75"/><line x1="211.18" y1="415.3" x2="211.18" y2="404.85" fill="none" stroke="#000" stroke-linecap="round" stroke-linejoin="round" stroke-width="0.75"/><path d="M211.18,409.15a8.34,8.34,0,0,1,3-1.18,3.65,3.65,0,0,1,2.77.5,2.46,2.46,0,0,1,.68,2v4.8" fill="none" stroke="#000" stroke-linecap="round" stroke-linejoin="round" stroke-width="0.75"/><line x1="219.53" y1="407.88" x2="219.53" y2="415.3" fill="none" stroke="#000" stroke-linecap="round" stroke-linejoin="round" stroke-width="0.75"/><line x1="219.53" y1="404.98" x2="219.53" y2="406.48" fill="none" stroke="#000" stroke-linecap="round" stroke-linejoin="round" stroke-width="0.75"/><path d="M227.75,415.35a11,11,0,0,1-3.18.22,4.29,4.29,0,0,1-2.13-.68,3.37,3.37,0,0,1-.91-2.76v-3.48a4.36,4.36,0,0,1,.54-2.81,3.08,3.08,0,0,1,2.14-1,10.21,10.21,0,0,1,3.49.13" fill="none" stroke="#000" stroke-linecap="round" stroke-linejoin="round" stroke-width="0.75"/><path d="M232,415.75a2.9,2.9,0,0,1-2.54-1.08,3.56,3.56,0,0,1-.5-1.9v-2a3.77,3.77,0,0,1,.37-1.86,2.71,2.71,0,0,1,2.27-1.27,3.4,3.4,0,0,1,2.76.82c1,1,.68,2.67.68,3.93a4.2,4.2,0,0,1-.36,2.09A2.92,2.92,0,0,1,232,415.75Z" fill="none" stroke="#000" stroke-linecap="round" stroke-linejoin="round" stroke-width="0.75"/><path d="M236.51,408.83a9.77,9.77,0,0,1,3.36-1.18,2.5,2.5,0,0,1,1.9.32,2,2,0,0,1,.5,1.4c0,1.45,0,2.9,0,4.39v1.86" fill="none" stroke="#000" stroke-linecap="round" stroke-linejoin="round" stroke-width="0.75"/><path d="M236.51,415.62v-8.15" fill="none" stroke="#000" stroke-linecap="round" stroke-linejoin="round" stroke-width="0.75"/><path d="M245,415.44v-4.62c0-1.58,0-3.17,0-4.7a1.68,1.68,0,0,1,1-1.68,2.08,2.08,0,0,1,1.73,0" fill="none" stroke="#000" stroke-linecap="round" stroke-linejoin="round" stroke-width="0.75"/><path d="M243.18,407.74h3.63" fill="none" stroke="#000" stroke-linecap="round" stroke-linejoin="round" stroke-width="0.75"/><path d="M253,404.54l1.64-1.37v8.33" fill="none" stroke="#000" stroke-linecap="round" stroke-linejoin="round" stroke-width="0.75"/><path d="M258.7,402.81a1.9,1.9,0,0,1,2.09,2.08c0,1.4.37,2.37-2.34,2.37-1.15,0-1.84-.54-1.84-2.37C256.61,403.74,257,402.81,258.7,402.81Z" fill="none" stroke="#000" stroke-linecap="round" stroke-linejoin="round" stroke-width="0.75"/><path d="M260.81,405.7c0,4.61.64,6-3.22,6" fill="none" stroke="#000" stroke-linecap="round" stroke-linejoin="round" stroke-width="0.75"/><line x1="188.52" y1="404.98" x2="188.52" y2="415.3" fill="none" stroke="#000" stroke-linecap="round" stroke-linejoin="round" stroke-width="0.75"/><line x1="194.61" y1="404.98" x2="194.61" y2="415.3" fill="none" stroke="#000" stroke-linecap="round" stroke-linejoin="round" stroke-width="0.75"/><line x1="188.52" y1="410.1" x2="194.61" y2="410.1" fill="none" stroke="#000" stroke-linecap="round" stroke-linejoin="round" stroke-width="0.75"/><path d="M201.91,414.21a3.28,3.28,0,0,1-2.36,1.18,3.39,3.39,0,0,1-2.31-.36,2.4,2.4,0,0,1-.73-2.08,1.79,1.79,0,0,1,1.5-1.72,12.2,12.2,0,0,1,1.81-.09h2.09" fill="none" stroke="#000" stroke-linecap="round" stroke-linejoin="round" stroke-width="0.75"/><path d="M196.74,408.11c1.63-.5,4.63-.82,5,1.4a9.9,9.9,0,0,1,.09,1.63v4.16" fill="none" stroke="#000" stroke-linecap="round" stroke-linejoin="round" stroke-width="0.75"/><path d="M203.59,415a8.79,8.79,0,0,0,2.68.41,3.5,3.5,0,0,0,2.13-.5,1.85,1.85,0,0,0,.64-1.4,1.59,1.59,0,0,0-.37-1.41,2,2,0,0,0-1.22-.5,17.51,17.51,0,0,1-3-.36c-1-.36-1-1.67-.59-2.49a2.17,2.17,0,0,1,1.68-.95,8.46,8.46,0,0,1,3.36.23" fill="none" stroke="#000" stroke-linecap="round" stroke-linejoin="round" stroke-width="0.75"/><line x1="210.67" y1="415.3" x2="210.67" y2="404.85" fill="none" stroke="#000" stroke-linecap="round" stroke-linejoin="round" stroke-width="0.75"/><path d="M210.67,409.15a8.34,8.34,0,0,1,3-1.18,3.66,3.66,0,0,1,2.77.5,2.44,2.44,0,0,1,.68,2v4.79" fill="none" stroke="#000" stroke-linecap="round" stroke-linejoin="round" stroke-width="0.75"/><line x1="219.02" y1="407.88" x2="219.02" y2="415.3" fill="none" stroke="#000" stroke-linecap="round" stroke-linejoin="round" stroke-width="0.75"/><line x1="219.02" y1="404.98" x2="219.02" y2="406.48" fill="none" stroke="#000" stroke-linecap="round" stroke-linejoin="round" stroke-width="0.75"/><line x1="251.46" y1="402.45" x2="251.46" y2="403.94" fill="none" stroke="#000" stroke-linecap="round" stroke-linejoin="round" stroke-width="0.75"/><polyline points="110.27 366.45 99.08 372.96 99.08 376.89 90.08 397.01 85.67 399.63 85.67 413.41" fill="none" stroke="#000" stroke-miterlimit="10"/><polygon points="85.67 389.21 78.95 373.56 78.95 369.13 78.91 369.1 72.24 372.96 72.24 376.89 81.19 397.04 85.67 394.83 85.67 389.21" fill="none" stroke="#000" stroke-miterlimit="10"/><polyline points="85.67 389.21 78.95 373.56 78.96 369.09 67.77 362.54 61.06 366.45 61.06 371.25 76.16 407.93 85.67 413.41 95.25 407.88 110.27 371.11 110.27 366.45 103.56 362.54 92.37 369.09 92.37 369.09 92.37 369.09 92.37 373.56 85.67 389.21" fill="none" stroke="#000" stroke-miterlimit="10"/><line x1="85.66" y1="409.56" x2="89.03" y2="411.47" fill="none" stroke="#000" stroke-miterlimit="10"/><line x1="85.66" y1="405.42" x2="92.66" y2="409.38" fill="none" stroke="#000" stroke-miterlimit="10"/><line x1="85.66" y1="401.27" x2="95.64" y2="406.93" fill="none" stroke="#000" stroke-miterlimit="10"/><line x1="80.94" y1="396.52" x2="81.55" y2="396.86" fill="none" stroke="#000" stroke-miterlimit="10"/><line x1="87.82" y1="398.35" x2="97.02" y2="403.57" fill="none" stroke="#000" stroke-miterlimit="10"/><line x1="79.74" y1="393.76" x2="83.5" y2="395.9" fill="none" stroke="#000" stroke-miterlimit="10"/><line x1="90.62" y1="395.8" x2="98.39" y2="400.2" fill="none" stroke="#000" stroke-miterlimit="10"/><line x1="77.28" y1="388.23" x2="85.66" y2="392.98" fill="none" stroke="#000" stroke-miterlimit="10"/><line x1="92.1" y1="392.49" x2="99.76" y2="396.84" fill="none" stroke="#000" stroke-miterlimit="10"/><line x1="74.82" y1="382.68" x2="85.66" y2="388.84" fill="none" stroke="#000" stroke-miterlimit="10"/><line x1="93.58" y1="389.19" x2="101.14" y2="393.47" fill="none" stroke="#000" stroke-miterlimit="10"/><line x1="72.36" y1="377.15" x2="83.11" y2="383.25" fill="none" stroke="#000" stroke-miterlimit="10"/><line x1="95.06" y1="385.88" x2="102.51" y2="390.11" fill="none" stroke="#000" stroke-miterlimit="10"/><line x1="72.24" y1="372.94" x2="80.76" y2="377.77" fill="none" stroke="#000" stroke-miterlimit="10"/><line x1="96.54" y1="382.58" x2="103.88" y2="386.75" fill="none" stroke="#000" stroke-miterlimit="10"/><line x1="75.88" y1="370.86" x2="78.95" y2="372.6" fill="none" stroke="#000" stroke-miterlimit="10"/><line x1="98.02" y1="379.27" x2="105.26" y2="383.38" fill="none" stroke="#000" stroke-miterlimit="10"/><line x1="99.09" y1="375.74" x2="106.63" y2="380.02" fill="none" stroke="#000" stroke-miterlimit="10"/><line x1="100.27" y1="372.27" x2="108" y2="376.65" fill="none" stroke="#000" stroke-miterlimit="10"/><line x1="103.88" y1="370.17" x2="109.38" y2="373.29" fill="none" stroke="#000" stroke-miterlimit="10"/><line x1="107.48" y1="368.07" x2="110.27" y2="369.65" fill="none" stroke="#000" stroke-miterlimit="10"/><line x1="67.56" y1="425.28" x2="69.56" y2="431.28" fill="none" stroke="#000" stroke-linecap="round" stroke-miterlimit="10"/><line x1="69.56" y1="431.28" x2="71.55" y2="425.28" fill="none" stroke="#000" stroke-linecap="round" stroke-miterlimit="10"/><line x1="79.55" y1="431.28" x2="75.55" y2="431.28" fill="none" stroke="#000" stroke-linecap="round" stroke-miterlimit="10"/><line x1="75.55" y1="431.28" x2="79.55" y2="423.28" fill="none" stroke="#000" stroke-linecap="round" stroke-miterlimit="10"/><line x1="79.55" y1="423.28" x2="77.55" y2="421.28" fill="none" stroke="#000" stroke-linecap="round" stroke-miterlimit="10"/><line x1="77.55" y1="421.28" x2="75.55" y2="423.28" fill="none" stroke="#000" stroke-linecap="round" stroke-miterlimit="10"/><line x1="85.55" y1="430.28" x2="85.55" y2="431.28" fill="none" stroke="#000" stroke-linecap="round" stroke-miterlimit="10"/><line x1="95.54" y1="431.28" x2="91.54" y2="431.28" fill="none" stroke="#000" stroke-linecap="round" stroke-miterlimit="10"/><line x1="91.54" y1="431.28" x2="95.54" y2="423.28" fill="none" stroke="#000" stroke-linecap="round" stroke-miterlimit="10"/><line x1="95.54" y1="423.28" x2="93.54" y2="421.28" fill="none" stroke="#000" stroke-linecap="round" stroke-miterlimit="10"/><line x1="93.54" y1="421.28" x2="91.54" y2="423.28" fill="none" stroke="#000" stroke-linecap="round" stroke-miterlimit="10"/></g></svg>